<?xml version="1.0" encoding="UTF-8"?>
<!-- Generator: Adobe Illustrator 17.0.0, SVG Export Plug-In . SVG Version: 6.00 Build 0)  -->
<svg width="792px" height="612px" enable-background="new 0 0 792 612" version="1.1" viewBox="0 0 792 612" xml:space="preserve" xmlns="http://www.w3.org/2000/svg" xmlns:cc="http://creativecommons.org/ns#" xmlns:dc="http://purl.org/dc/elements/1.1/" xmlns:rdf="http://www.w3.org/1999/02/22-rdf-syntax-ns#" xmlns:xlink="http://www.w3.org/1999/xlink"><metadata><rdf:RDF><cc:Work rdf:about=""><dc:format>image/svg+xml</dc:format><dc:type rdf:resource="http://purl.org/dc/dcmitype/StillImage"/></cc:Work></rdf:RDF></metadata><rect x="14.829" y="15.312" width="762.66" height="577.58" fill="#F1F2F2"/><g fill="none" stroke="#fff" stroke-miterlimit="10" stroke-width=".8266"><path d="m773.94 154.17c-234.08 65.305-601.65-74.398-755.55 0"/><path d="m773.94 159.54c-236.72 66.208-602.67-74.75-755.55 0"/><path d="m773.94 164.91c-239.36 67.112-603.7-75.102-755.55 0"/><path d="m773.94 170.28c-242.01 68.015-604.72-75.454-755.55 0"/><path d="m773.94 175.65c-244.65 68.917-605.74-75.807-755.55 0"/><path d="m773.94 181.02c-247.29 69.82-606.76-76.159-755.55 0"/><path d="m773.94 186.39c-249.93 70.724-607.78-76.51-755.55 0"/><path d="m773.94 191.76c-252.58 71.627-608.8-76.863-755.55 0"/><path d="m773.94 197.13c-255.22 72.53-609.82-77.215-755.55 0"/><path d="m773.94 202.5c-257.86 73.433-610.84-77.567-755.55 0"/><path d="m773.94 207.87c-260.5 74.337-611.86-77.919-755.55 0"/><path d="m773.94 213.24c-263.14 75.239-612.88-78.271-755.55 0"/><path d="m773.94 218.61c-265.78 76.143-613.91-78.623-755.55 0"/><path d="m773.94 223.98c-268.43 77.046-614.93-78.975-755.55 0"/><path d="m773.94 229.35c-271.07 77.949-615.95-79.327-755.55 0"/><path d="m773.94 234.72c-273.71 78.854-616.97-79.68-755.55 0"/><path d="m773.94 240.09c-276.35 79.758-617.99-80.032-755.55 0"/><path d="m773.94 245.46c-279 80.662-619.01-80.384-755.55 0"/><path d="m773.94 250.82c-281.64 81.564-620.03-80.736-755.55 0"/><path d="m773.94 256.19c-284.28 82.468-621.06-81.088-755.55 0"/><path d="m773.94 261.56c-286.92 83.371-622.08-81.44-755.55 0"/><path d="m773.94 266.93c-289.56 84.274-623.1-81.792-755.55 0"/><path d="m773.94 272.3c-292.2 85.177-624.12-82.145-755.55 0"/><path d="m773.94 277.67c-294.85 86.081-625.14-82.496-755.55 0"/><path d="m773.94 283.04c-297.49 86.984-626.16-82.849-755.55 0"/><path d="m773.94 288.41c-300.13 87.887-627.18-83.201-755.55 0"/><path d="m773.94 293.78c-302.77 88.791-628.2-83.553-755.55 0"/><path d="m773.94 299.15c-305.42 89.694-629.22-83.905-755.55 0"/><path d="m773.94 304.52c-308.06 90.597-630.24-84.257-755.55 0"/><path d="m773.94 309.89c-310.7 91.497-631.27-84.612-755.55 0"/><path d="m773.94 315.26c-313.34 92.399-632.29-84.964-755.55 0"/><path d="m773.94 320.63c-315.98 93.303-633.31-85.317-755.55 0"/><path d="m773.94 326c-318.63 94.207-634.33-85.669-755.55 0"/><path d="m773.94 331.37c-321.27 95.109-635.35-86.02-755.55 0"/><path d="m773.94 336.74c-323.91 96.014-636.37-86.372-755.55 0"/><path d="m773.94 342.11c-326.55 96.916-637.39-86.725-755.55 0"/><path d="m773.94 347.48c-329.19 97.818-638.41-87.077-755.55 0"/><path d="m773.94 352.85c-331.84 98.723-639.44-87.429-755.55 0"/><path d="m773.94 358.22c-334.48 99.626-640.46-87.781-755.55 0"/><path d="m773.94 363.59c-337.12 100.53-641.48-88.133-755.55 0"/><path d="m773.94 368.96c-339.76 101.43-642.5-88.485-755.55 0"/><path d="m773.94 374.33c-342.4 102.34-643.52-88.838-755.55 0"/><path d="m773.94 379.7c-345.05 103.24-644.54-89.189-755.55 0"/><path d="m773.94 385.07c-347.69 104.14-645.56-89.542-755.55 0"/><path d="m773.94 390.44c-350.33 105.04-646.58-89.893-755.55 0"/><path d="m773.94 395.81c-352.97 105.95-647.6-90.246-755.55 0"/><path d="m773.94 401.18c-355.61 106.85-648.62-90.595-755.55 0"/><path d="m773.94 406.54c-358.26 107.76-649.65-90.947-755.55 0"/><path d="m773.94 411.92c-360.9 108.66-650.67-91.299-755.55 0"/><path d="m773.94 417.28c-363.54 109.56-651.69-91.651-755.55 0"/><path d="m773.94 422.65c-366.18 110.46-652.71-92.004-755.55 0"/><path d="m773.94 428.02c-368.82 111.37-653.73-92.355-755.55 0"/></g><g transform="translate(-1.9019e-6 3.0518e-7)"><g opacity=".2"><circle cx="396.16" cy="212.08" r="78.141" d="m 474.30201,212.077 c 0,43.15608 -34.98492,78.14099 -78.141,78.14099 -43.15608,0 -78.141,-34.98491 -78.141,-78.14099 0,-43.15609 34.98492,-78.141 78.141,-78.141 43.15608,0 78.141,34.98491 78.141,78.141 z"/></g><circle cx="396.16" cy="209.84" r="78.141" d="m 474.30201,209.836 c 0,43.15608 -34.98492,78.141 -78.141,78.141 -43.15608,0 -78.141,-34.98492 -78.141,-78.141 0,-43.15608 34.98492,-78.141 78.141,-78.141 43.15608,0 78.141,34.98492 78.141,78.141 z" fill="#fff"/></g><g transform="translate(-46.912 -11.071)"><rect x="137.11" y="316.25" width="518.1" height="249" fill="none"/><text transform="translate(137.11 326.27)" style="inline-size:54;line-height:0%;white-space:pre" xml:space="preserve"/>
<text transform="matrix(1.0804 0 0 1.1068 39.11 -21.506)" fill="#000000" font-family="ArialMT" font-size="14.632px" stroke="#a9a9a9" style="font-variant-caps:normal;font-variant-east-asian:normal;font-variant-ligatures:normal;font-variant-numeric:normal;shape-inside:url(#rect1);white-space:pre" xml:space="preserve"><tspan x="97" y="316.34876"><tspan fill="#9c9c9c" font-family="Sans" stroke="none">This certificate has been awarded for successfully completing the basic software </tspan></tspan><tspan x="97" y="334.63813"><tspan fill="#9c9c9c" font-family="Sans" stroke="none">skills training run by Software Carpentry.The recipient was introduced to core </tspan></tspan><tspan x="97" y="352.9275"><tspan fill="#9c9c9c" font-family="Sans" stroke="none">computational skills, including task automation, version control, and modular </tspan></tspan><tspan x="97" y="371.21686"><tspan fill="#9c9c9c" font-family="Sans" stroke="none">programming.
</tspan></tspan><tspan x="97" y="389.50623"><tspan fill="#9c9c9c" font-family="Sans" stroke="none">
</tspan></tspan><tspan x="97" y="407.7956"><tspan fill="#9c9c9c" font-family="Sans" stroke="none">
</tspan></tspan><tspan x="97" y="426.08497"><tspan fill="#9c9c9c" font-family="Sans" stroke="none">Recipient: {{name}}
</tspan></tspan><tspan x="97" y="444.37433"><tspan fill="#9c9c9c" font-family="Sans" stroke="none">Date of Award: {{date}}
</tspan></tspan><tspan x="97" y="462.6637"><tspan fill="#9c9c9c" font-family="Sans" stroke="none">Certified by:  {{instructor}}</tspan></tspan></text><text x="226.91168" y="401.07108" fill="#000000" font-family="Sans" font-size="14px" style="font-variant-caps:normal;font-variant-east-asian:normal;font-variant-ligatures:normal;font-variant-numeric:normal" xml:space="preserve"><tspan x="226.91168" y="401.07108"/></text></g><polygon transform="matrix(1.4139 0 0 1.407 -163.92 -90.515)" points="446.23 221.64 345.77 221.64 348.79 228.17 345.77 234.7 446.23 234.7 444.22 227.86" fill="#81aa40"/><g transform="matrix(1.4139 0 0 1.407 -82.845 562.1)"><path d="m288.44-242.18h100.45l-2.009 6.216 2.009 6.843h-100.45l3.013-6.528-3.013-6.531z" fill="none" stroke="#fff" stroke-linejoin="round" stroke-miterlimit="10" stroke-width="1.0105"/></g><path d="m452.19 194.31-36.518 14.713 31.793-29.122c-2.3762-4.8827-5.4348-9.3754-9.0519-13.357l-33.754 41.714 18.355-53.714c-4.7733-2.5499-9.9496-4.4485-15.414-5.5658l-10.307 56.03-10.621-56.419c-5.7044 0.93893-11.121 2.7172-16.122 5.2063l18.686 52.424-33.467-41.853c-3.9659 3.9286-7.3538 8.4351-10.029 13.38l37.665 34.034-43.203-18.998c-0.81569 3.8262-1.2548 7.7907-1.2548 11.858 0 1.7797 0.0931 3.5358 0.2543 5.274l50.926 11.782 1.8704 3.0007 4.947-1.1671 1.8746 0.93202 2.0191-1.8502 52.023-12.268c0.18761-1.8765 0.28627-3.7778 0.28627-5.7041-9.8e-4 -3.5276-0.34046-6.9763-0.96022-10.328z" fill="#bcc632" opacity=".5"/><g transform="matrix(1.4139 0 0 1.407 -61.364 528.26)"><path d="m282.28-203.81h82.371l-2.009 6.53h-77.599l-2.763-6.53z" fill="#c2cf2f"/><path d="m282.28-203.81h82.371l-2.009 6.53h-77.599l-2.763-6.53z" fill="none" stroke="#fff" stroke-linejoin="round" stroke-miterlimit="10" stroke-width="1.0105"/></g><path d="m461.23 207.56-4.9191-2.9491c-0.33793-0.20262-0.44681-0.63879-0.2432-0.97508l1.3701-2.2681c0.0961-0.16181 0.25592-0.27859 0.43973-0.32361 0.1824-0.0465 0.37894-0.0155 0.54154 0.0816l2.8336 1.6983c-0.0707-2.1936-0.25168-4.3942-0.54154-6.5638l-5.3645-2.0542c-0.36763-0.14212-0.55144-0.55297-0.41004-0.9188l0.95441-2.4707c0.0679-0.17587 0.20361-0.31798 0.37752-0.39536 0.1725-0.076 0.36904-0.083 0.5472-0.014l3.098 1.1875c-0.44963-2.1499-1.0124-4.2872-1.6798-6.3738l-5.6515-1.1003c-0.38742-0.0745-0.64052-0.44744-0.56417-0.83296l0.50902-2.5988c0.0353-0.18573 0.14564-0.34895 0.30259-0.45306 0.15694-0.10552 0.34924-0.14633 0.53588-0.10834l3.2634 0.63457c-0.82575-2.05-1.7561-4.0579-2.7742-5.9883l-5.7534-0.10552c-0.18947-4e-3 -0.36904-0.0816-0.50053-0.21809-0.1315-0.13649-0.20361-0.31799-0.19937-0.50653l0.0495-2.6466c3e-3 -0.18854 0.082-0.36864 0.21774-0.49809 0.13716-0.13085 0.304-0.20543 0.50903-0.19979l3.3129 0.0619c-1.1708-1.8756-2.4362-3.692-3.7724-5.417l-5.6784 0.88783c-0.38601 0.0605-0.75505-0.20401-0.81585-0.59095l-0.4157-2.6157c-0.0297-0.18714 0.017-0.37708 0.12867-0.52904 0.1117-0.15196 0.27855-0.25467 0.4666-0.28422l3.269-0.51075c-1.4691-1.6336-3.0315-3.2024-4.6575-4.6826l-5.4324 1.8517c-0.37187 0.12662-0.7805-0.0704-0.90776-0.44181l-0.86392-2.5031c-0.0622-0.17729-0.0495-0.37427 0.0325-0.54311 0.0848-0.16885 0.23048-0.29829 0.41005-0.3602l3.1333-1.0679c-1.7179-1.3479-3.5292-2.6255-5.3999-3.8102l-5.0351 2.7648c-0.16401 0.0901-0.35773 0.11397-0.54437 0.0605-0.18098-0.0521-0.3351-0.17448-0.42701-0.3391l-1.2839-2.316c-0.19088-0.34471-0.065-0.77668 0.27996-0.96662l2.9057-1.5956c-1.947-1.0412-3.9534-1.9881-5.9838-2.8225l-4.4836 3.5978c-0.30824 0.24483-0.75929 0.19839-1.0053-0.10693l-1.6684-2.0585c-0.24744-0.30533-0.19937-0.75276 0.10746-0.99899l2.5875-2.0782c-2.0941-0.68663-4.2376-1.2705-6.391-1.7405l-3.7851 4.3154c-0.26016 0.29829-0.71263 0.32502-1.0081 0.069l-2.0036-1.7391c-0.14423-0.12382-0.23048-0.29969-0.2432-0.48824-0.0127-0.18854 0.0495-0.37427 0.17391-0.51638l2.1803-2.4848c-2.1803-0.31235-4.3917-0.51497-6.5975-0.60643l-2.965 4.8908c-0.20361 0.33628-0.64051 0.44603-0.98128 0.2406l-2.2764-1.3676c-0.1626-0.0971-0.27855-0.25467-0.32379-0.439-0.0453-0.18291-0.017-0.37707 0.082-0.53747l1.708-2.8155c-2.2086 0.0662-4.42 0.24341-6.596 0.52764l-2.0728 5.3368c-0.0679 0.17588-0.20361 0.31799-0.37752 0.39397-0.1725 0.076-0.37045 0.0816-0.5472 0.0126l-2.4829-0.95537c-0.17674-0.0676-0.31955-0.20402-0.3959-0.37567-0.0763-0.17167-0.082-0.36865-0.0127-0.54452l1.199-3.0814c-2.1619 0.44461-4.3111 1.0018-6.4094 1.6617l-1.1128 5.6239c-0.0368 0.18433-0.14564 0.34753-0.30259 0.45306-0.15836 0.10412-0.35348 0.14211-0.53588 0.10694l-2.6102-0.51075c-0.38742-0.076-0.6391-0.44884-0.56275-0.83437l0.64194-3.2474c-2.0502 0.81467-4.0693 1.7363-6.022 2.7522l-0.11594 5.728c-8e-3 0.39256-0.32945 0.66975-0.72818 0.69647l-2.6582-0.052c-0.18947-4e-3 -0.37046-0.083-0.50054-0.21809-0.13008-0.13507-0.20361-0.31799-0.19937-0.50653l0.0665-3.3009c-1.8791 1.1594-3.7074 2.4159-5.4494 3.7497l0.88372 5.6506c0.0297 0.18573-0.017 0.37709-0.12867 0.52904-0.1117 0.15196-0.27996 0.25326-0.4666 0.28282l-2.6271 0.40663c-0.18523 0.0323-0.37753-0.0169-0.53165-0.12804-0.1527-0.11116-0.25451-0.27859-0.2842-0.46432l-0.50761-3.253c-1.6501 1.4633-3.2309 3.0153-4.7141 4.6277l1.8537 5.4114c0.12726 0.37145-0.0721 0.77527-0.44539 0.9019l-2.5168 0.85406c-0.17675 0.0605-0.3747 0.0493-0.54579-0.0337s-0.29975-0.23076-0.36055-0.40945l-1.069-3.1222c-1.3644 1.7194-2.6512 3.5204-3.8374 5.3706l2.7728 5.0132c0.18947 0.34473 0.0636 0.77668-0.28137 0.96523l-2.3274 1.2762c-0.16543 0.0901-0.3648 0.11115-0.54295 0.0605-0.1824-0.0534-0.33511-0.17588-0.42701-0.3405l-1.6006-2.8985c-1.0477 1.9318-2.0022 3.927-2.8449 5.9517l3.6098 4.4687c0.11877 0.14633 0.17392 0.33486 0.15412 0.522-0.0212 0.18713-0.11594 0.3588-0.26299 0.47698l-2.0714 1.6575c-0.30824 0.24623-0.75788 0.19698-1.0039-0.10834l-2.0856-2.5791c-0.69284 2.0838-1.2824 4.2168-1.7575 6.3584l4.3309 3.7736c0.29693 0.2589 0.32662 0.70774 0.0665 1.0032l-1.7519 1.991c-0.12443 0.14211-0.30117 0.22794-0.49064 0.2406-0.18806 0.0126-0.37611-0.0507-0.51892-0.17448l-2.4928-2.1724c-0.31531 2.164-0.52174 4.3646-0.61931 6.5666l4.912 2.9618c0.33793 0.20402 0.44539 0.64161 0.24037 0.97648l-1.3772 2.2611c-0.0976 0.1618-0.25734 0.27719-0.44115 0.32221-0.1824 0.0479-0.37753 0.0155-0.54013-0.083l-2.8279-1.7067c0.11453 3.9467 0.58961 7.8892 1.4168 11.744h6.0814c-1.0576-4.4476-1.5921-9.0289-1.5921-13.633 0-32.566 26.625-59.06 59.35-59.06 32.723 0 59.345 26.494 59.345 59.06 0 4.5996-0.53589 9.1808-1.5935 13.633h6.0842c0.77625-3.5992 1.2429-7.287 1.3942-10.973z" fill="#c2cf2f"/><g transform="matrix(1.4139 0 0 1.407 -163.92 -90.515)" enable-background="new    " fill="#fff"><path d="m355.68 232.09v-8.044h1.638v6.677h4.072v1.367h-5.71z"/><path d="m367.04 232.09v-8.11h6.014v1.372h-4.376v1.798h4.072v1.367h-4.072v2.207h4.531v1.367h-6.169z"/><path d="m386.35 232.09h-1.781l-0.708-1.842h-3.242l-0.669 1.842h-1.737l3.159-8.11h1.731l3.247 8.11zm-3.014-3.209-1.117-3.009-1.096 3.009h2.213z"/><path d="m392.11 232.09v-8.11h3.446c0.867 0 1.498 0.073 1.89 0.218 0.393 0.146 0.707 0.405 0.943 0.777 0.235 0.373 0.354 0.799 0.354 1.278 0 0.608-0.179 1.111-0.536 1.507-0.358 0.396-0.893 0.646-1.605 0.75 0.354 0.207 0.647 0.434 0.877 0.681s0.541 0.686 0.932 1.317l0.99 1.582h-1.958l-1.184-1.765c-0.421-0.631-0.709-1.028-0.863-1.192-0.155-0.164-0.319-0.277-0.492-0.337-0.174-0.061-0.448-0.091-0.824-0.091h-0.332v3.386h-1.638zm1.637-4.68h1.211c0.786 0 1.276-0.033 1.472-0.1s0.349-0.181 0.459-0.343c0.112-0.162 0.167-0.365 0.167-0.608 0-0.273-0.073-0.493-0.218-0.661-0.146-0.168-0.352-0.274-0.617-0.318-0.133-0.018-0.531-0.027-1.195-0.027h-1.277v2.057z"/><path d="m404.72 232.09v-8.11h1.594l3.319 5.416v-5.416h1.521v8.11h-1.644l-3.27-5.289v5.289h-1.52z"/><path d="m418.87 232.09v-8.11h6.014v1.372h-4.376v1.798h4.072v1.367h-4.072v2.207h4.531v1.367h-6.169z"/><path d="m430.86 232.09v-8.11h3.446c0.867 0 1.497 0.073 1.89 0.218 0.393 0.146 0.707 0.405 0.943 0.777 0.235 0.373 0.354 0.799 0.354 1.278 0 0.608-0.179 1.111-0.536 1.507-0.358 0.396-0.893 0.646-1.604 0.75 0.354 0.207 0.646 0.434 0.877 0.681s0.541 0.686 0.932 1.317l0.99 1.582h-1.958l-1.184-1.765c-0.421-0.631-0.709-1.028-0.863-1.192-0.155-0.164-0.319-0.277-0.492-0.337-0.174-0.061-0.448-0.091-0.824-0.091h-0.332v3.386h-1.639zm1.638-4.68h1.211c0.786 0 1.276-0.033 1.472-0.1s0.349-0.181 0.459-0.343c0.111-0.162 0.166-0.365 0.166-0.608 0-0.273-0.072-0.493-0.218-0.661s-0.352-0.274-0.617-0.318c-0.133-0.018-0.531-0.027-1.195-0.027h-1.277v2.057z"/></g><g transform="matrix(1.4139 0 0 1.407 -163.92 438.63)"><g transform="translate(133.77 136.45)"><path d="m257.49-319.86h9.179v0.93s-0.288 1.024-1.434 0.719l-0.719 0.16v17.624l-2.436 2.275-2.867-2.068v-17.991s-1.435-0.099-1.722-0.409c-0.288-0.31-1e-3 -1.24-1e-3 -1.24" fill="#2b3c90"/></g><g transform="translate(136.9 135.93)"><path d="m256.22-319.03h6.309s0.86 0.516 0 0.566c-0.86 0.053-6.309-0.566-6.309-0.566" fill="#fff"/></g><g transform="translate(143.89 133.68)"><path d="m253.38-315.44v17.576l-0.811 0.311v-17.624l0.811-0.263z" fill="#fff"/></g><g transform="translate(156.36 123.49)"><path d="m248.34-299.2-0.01 9e-3c-0.483-0.47-1.138-0.76-1.865-0.76-1.48 0-2.682 1.202-2.682 2.681 0 0.728 0.29 1.385 0.76 1.868l-4e-3 5e-3c0.016 0.014 0.033 0.027 0.051 0.043 0.09 0.088 0.188 0.168 0.288 0.244 1.703 1.511 2.779 3.711 2.779 6.166 0 4.56-3.696 8.256-8.253 8.256-4.559 0-8.254-3.696-8.254-8.256 0-2.414 1.044-4.585 2.699-6.093 0.721-0.48 1.197-1.3 1.197-2.233 0-1.479-1.201-2.681-2.681-2.681-0.731 0-1.395 0.294-1.879 0.77l-0.018-0.02c-2.86 2.496-4.671 6.164-4.671 10.256 0 7.519 6.093 13.609 13.608 13.609 7.513 0 13.606-6.091 13.606-13.609-1e-3 -4.091-1.811-7.759-4.671-10.255" fill="#2b3c90"/></g></g><path d="m442.96 168.81c-1.93-2.5439-4.0722-4.919-6.3868-7.1153-8.4625-0.11397-20.969 0.27999-20.969 0.27999l0.89079-0.73165s11.136-0.15477 19.473-0.12241c-0.31531-0.28985-0.63345-0.57548-0.95441-0.85969-6.6484 0.0268-14.192 0.27437-19.934 0.23074-0.27855 0-1.2471 0.46292-1.0887 0.85548-4.9304-0.0296-2.3613 0-8.3168-0.0873-3.2224-0.0493-8.3338 1.1566-8.4808-4.5109-0.0806-2.8267 2.5296-5.3284 5.6303-8.3408-1.9611-0.61206-3.9548 0.69647-5.94 1.7855-0.97703 0.9427-1.6359 1.5801-2.4518 2.3708-3.04 4.3674-4.2432 8.7658-3.5603 13.189 2.7204-0.50372 4.7169 3.2066 2.7968 4.9415l-1.6967 0.0169c-0.80312 6e-3 -1.4451 0.8203-1.438 1.8136l0.0297 3.9326c8e-3 0.99196 0.66738 1.6645 1.4691 1.6603l8.5614 0.0507c0.80453-6e-3 1.445-0.82171 1.4352-1.8179l-0.0297-3.9256c-4e-3 -0.99758-0.6688-1.7996-1.4663-1.794l-1.069 0.01c-1.8608-5.296 1.6161-3.7146 5.0577-3.6611 6.473 0.0985 3.4288 0.0591 9.1256 0.0985 0.32663 0.39396 0.16261 1.1144 1.0562 1.4914 0.45812 0.18995 20.679 0.28844 28.256 0.2392zm-42.362 2.5777-0.0255 4.1507s-0.10181-2.7057-1.2245-2.8957c-1.1156-0.18432-0.47791-1.2649-0.47791-1.2649l1.7278 0.01z" fill="#2b3c90"/><g fill="#fff"><polygon points="10.494 58.351 10.494 49.703 19.161 54.708 19.161 63.355"/><polygon points="10.494 58.614 10.494 63.545 15.436 60.691 15.436 55.76"/><polygon points="10.494 72.192 10.494 63.545 19.161 68.55 19.161 77.197"/><polygon points="10.494 72.456 10.494 77.387 15.436 74.533 15.436 69.602"/><polygon points="10.494 86.035 10.494 77.387 19.161 82.393 19.161 91.04"/><polygon points="10.494 86.298 10.494 91.229 15.436 88.376 15.436 83.444"/><polygon points="10.494 99.877 10.494 91.229 19.161 96.234 19.161 104.88"/><polygon points="10.494 100.14 10.494 105.07 15.436 102.22 15.436 97.286"/><polygon points="10.494 113.72 10.494 105.07 19.161 110.08 19.161 118.72"/><polygon points="10.494 113.98 10.494 118.91 15.436 116.06 15.436 111.13"/><polygon points="10.494 127.56 10.494 118.91 19.161 123.92 19.161 132.57"/><polygon points="10.494 127.82 10.494 132.76 15.436 129.9 15.436 124.97"/><polygon points="10.494 141.4 10.494 132.76 19.161 137.76 19.161 146.41"/><polygon points="10.494 141.67 10.494 146.6 15.436 143.74 15.436 138.81"/><polygon points="10.494 155.24 10.494 146.6 19.161 151.6 19.161 160.25"/><polygon points="10.494 155.51 10.494 160.44 15.436 157.59 15.436 152.66"/><polygon points="10.494 169.09 10.494 160.44 19.161 165.44 19.161 174.09"/><polygon points="10.494 169.35 10.494 174.28 15.436 171.43 15.436 166.5"/><polygon points="10.494 182.93 10.494 174.28 19.161 179.29 19.161 187.94"/><polygon points="10.494 183.19 10.494 188.12 15.436 185.27 15.436 180.34"/><polygon points="10.494 196.77 10.494 188.12 19.161 193.13 19.161 201.78"/><polygon points="10.494 197.04 10.494 201.97 15.436 199.11 15.436 194.18"/><polygon points="10.494 210.61 10.494 201.97 19.161 206.97 19.161 215.62"/><polygon points="10.494 210.88 10.494 215.81 15.436 212.96 15.436 208.02"/><polygon points="10.494 224.46 10.494 215.81 19.161 220.81 19.161 229.46"/><polygon points="10.494 224.72 10.494 229.65 15.436 226.8 15.436 221.86"/><polygon points="10.494 238.3 10.494 229.65 19.161 234.66 19.161 243.3"/><polygon points="10.494 238.56 10.494 243.49 15.436 240.64 15.436 235.71"/><polygon points="10.494 252.14 10.494 243.49 19.161 248.5 19.161 257.14"/><polygon points="10.494 252.4 10.494 257.34 15.436 254.48 15.436 249.55"/><polygon points="10.494 265.98 10.494 257.34 19.161 262.34 19.161 270.99"/><polygon points="10.494 266.25 10.494 271.18 15.436 268.32 15.436 263.39"/><polygon points="10.494 279.82 10.494 271.18 19.161 276.18 19.161 284.83"/><polygon points="10.494 280.09 10.494 285.02 15.436 282.16 15.436 277.23"/><polygon points="10.494 293.67 10.494 285.02 19.161 290.02 19.161 298.67"/><polygon points="10.494 293.93 10.494 298.86 15.436 296.01 15.436 291.08"/><polygon points="10.494 307.51 10.494 298.86 19.161 303.87 19.161 312.52"/><polygon points="10.494 307.77 10.494 312.71 15.436 309.85 15.436 304.92"/><polygon points="10.494 321.35 10.494 312.71 19.161 317.71 19.161 326.36"/><polygon points="10.494 321.62 10.494 326.55 15.436 323.69 15.436 318.76"/><polygon points="10.494 335.2 10.494 326.55 19.161 331.55 19.161 340.2"/><polygon points="10.494 335.46 10.494 340.39 15.436 337.54 15.436 332.6"/><polygon points="10.494 349.04 10.494 340.39 19.161 345.4 19.161 354.04"/><polygon points="10.494 349.3 10.494 354.23 15.436 351.38 15.436 346.45"/><polygon points="10.494 362.88 10.494 354.23 19.161 359.24 19.161 367.88"/><polygon points="10.494 363.14 10.494 368.08 15.436 365.22 15.436 360.29"/><polygon points="10.494 376.72 10.494 368.08 19.161 373.08 19.161 381.73"/><polygon points="10.494 376.99 10.494 381.92 15.436 379.06 15.436 374.13"/><polygon points="10.494 390.56 10.494 381.92 19.161 386.92 19.161 395.57"/><polygon points="10.494 390.83 10.494 395.76 15.436 392.9 15.436 387.97"/><polygon points="10.494 404.41 10.494 395.76 19.161 400.76 19.161 409.41"/><polygon points="10.494 404.67 10.494 409.6 15.436 406.75 15.436 401.82"/><polygon points="10.494 418.25 10.494 409.6 19.161 414.61 19.161 423.25"/><polygon points="10.494 418.51 10.494 423.44 15.436 420.59 15.436 415.66"/><polygon points="10.494 432.09 10.494 423.44 19.161 428.45 19.161 437.1"/><polygon points="10.494 432.35 10.494 437.29 15.436 434.43 15.436 429.5"/><polygon points="10.494 445.93 10.494 437.29 19.161 442.29 19.161 450.94"/><polygon points="10.494 446.2 10.494 451.13 15.436 448.27 15.436 443.34"/><polygon points="10.494 459.78 10.494 451.13 19.161 456.13 19.161 464.78"/><polygon points="10.494 460.04 10.494 464.97 15.436 462.12 15.436 457.18"/><polygon points="10.494 473.62 10.494 464.97 19.161 469.98 19.161 478.62"/><polygon points="10.494 473.88 10.494 478.81 15.436 475.96 15.436 471.03"/><polygon points="10.494 487.46 10.494 478.81 19.161 483.82 19.161 492.46"/><polygon points="10.494 487.72 10.494 492.65 15.436 489.8 15.436 484.87"/><polygon points="10.494 501.3 10.494 492.65 19.161 497.66 19.161 506.31"/><polygon points="10.494 501.56 10.494 506.5 15.436 503.64 15.436 498.71"/><polygon points="10.494 515.14 10.494 506.5 19.161 511.5 19.161 520.15"/><polygon points="10.494 515.41 10.494 520.34 15.436 517.48 15.436 512.55"/><polygon points="10.494 528.98 10.494 520.34 19.161 525.34 19.161 533.99"/><polygon points="10.494 529.25 10.494 534.18 15.436 531.33 15.436 526.4"/><polygon points="10.494 542.83 10.494 534.18 19.161 539.18 19.161 547.83"/><polygon points="10.494 543.09 10.494 548.02 15.436 545.17 15.436 540.24"/><polygon points="10.494 556.67 10.494 548.02 19.161 553.03 19.161 561.68"/><polygon points="10.494 556.93 10.494 561.86 15.436 559.01 15.436 554.08"/><polygon points="10.494 570.51 10.494 561.86 19.161 566.87 19.161 575.52"/><polygon points="10.494 570.78 10.494 575.71 15.436 572.85 15.436 567.92"/></g><g fill="#fff"><polygon points="781.83 567.06 781.83 575.71 773.16 570.7 773.16 562.06"/><polygon points="781.83 566.8 781.83 561.86 776.89 564.72 776.89 569.65"/><polygon points="781.83 553.22 781.83 561.86 773.16 556.86 773.16 548.21"/><polygon points="781.83 552.95 781.83 548.02 776.89 550.88 776.89 555.81"/><polygon points="781.83 539.38 781.83 548.02 773.16 543.02 773.16 534.37"/><polygon points="781.83 539.11 781.83 534.18 776.89 537.04 776.89 541.97"/><polygon points="781.83 525.53 781.83 534.18 773.16 529.18 773.16 520.53"/><polygon points="781.83 525.27 781.83 520.34 776.89 523.19 776.89 528.12"/><polygon points="781.83 511.69 781.83 520.34 773.16 515.33 773.16 506.69"/><polygon points="781.83 511.43 781.83 506.5 776.89 509.35 776.89 514.28"/><polygon points="781.83 497.85 781.83 506.5 773.16 501.49 773.16 492.84"/><polygon points="781.83 497.58 781.83 492.65 776.89 495.51 776.89 500.44"/><polygon points="781.83 484.01 781.83 492.65 773.16 487.65 773.16 479"/><polygon points="781.83 483.74 781.83 478.81 776.89 481.67 776.89 486.6"/><polygon points="781.83 470.16 781.83 478.81 773.16 473.81 773.16 465.16"/><polygon points="781.83 469.9 781.83 464.97 776.89 467.82 776.89 472.76"/><polygon points="781.83 456.32 781.83 464.97 773.16 459.96 773.16 451.32"/><polygon points="781.83 456.06 781.83 451.13 776.89 453.98 776.89 458.91"/><polygon points="781.83 442.48 781.83 451.13 773.16 446.12 773.16 437.48"/><polygon points="781.83 442.22 781.83 437.29 776.89 440.14 776.89 445.07"/><polygon points="781.83 428.64 781.83 437.29 773.16 432.28 773.16 423.63"/><polygon points="781.83 428.38 781.83 423.44 776.89 426.3 776.89 431.23"/><polygon points="781.83 414.8 781.83 423.44 773.16 418.44 773.16 409.79"/><polygon points="781.83 414.53 781.83 409.6 776.89 412.46 776.89 417.39"/><polygon points="781.83 400.95 781.83 409.6 773.16 404.6 773.16 395.95"/><polygon points="781.83 400.69 781.83 395.76 776.89 398.61 776.89 403.54"/><polygon points="781.83 387.11 781.83 395.76 773.16 390.75 773.16 382.11"/><polygon points="781.83 386.85 781.83 381.92 776.89 384.77 776.89 389.7"/><polygon points="781.83 373.27 781.83 381.92 773.16 376.91 773.16 368.26"/><polygon points="781.83 373.01 781.83 368.08 776.89 370.93 776.89 375.86"/><polygon points="781.83 359.43 781.83 368.08 773.16 363.07 773.16 354.42"/><polygon points="781.83 359.16 781.83 354.23 776.89 357.09 776.89 362.02"/><polygon points="781.83 345.59 781.83 354.23 773.16 349.23 773.16 340.58"/><polygon points="781.83 345.32 781.83 340.39 776.89 343.24 776.89 348.18"/><polygon points="781.83 331.74 781.83 340.39 773.16 335.39 773.16 326.74"/><polygon points="781.83 331.48 781.83 326.55 776.89 329.4 776.89 334.33"/><polygon points="781.83 317.9 781.83 326.55 773.16 321.54 773.16 312.9"/><polygon points="781.83 317.64 781.83 312.71 776.89 315.56 776.89 320.49"/><polygon points="781.83 304.06 781.83 312.71 773.16 307.7 773.16 299.05"/><polygon points="781.83 303.79 781.83 298.86 776.89 301.72 776.89 306.65"/><polygon points="781.83 290.21 781.83 298.86 773.16 293.86 773.16 285.21"/><polygon points="781.83 289.95 781.83 285.02 776.89 287.87 776.89 292.8"/><polygon points="781.83 276.37 781.83 285.02 773.16 280.01 773.16 271.37"/><polygon points="781.83 276.11 781.83 271.18 776.89 274.03 776.89 278.96"/><polygon points="781.83 262.53 781.83 271.18 773.16 266.17 773.16 257.52"/><polygon points="781.83 262.27 781.83 257.34 776.89 260.19 776.89 265.12"/><polygon points="781.83 248.69 781.83 257.34 773.16 252.33 773.16 243.68"/><polygon points="781.83 248.42 781.83 243.49 776.89 246.35 776.89 251.28"/><polygon points="781.83 234.85 781.83 243.49 773.16 238.49 773.16 229.84"/><polygon points="781.83 234.58 781.83 229.65 776.89 232.5 776.89 237.44"/><polygon points="781.83 221 781.83 229.65 773.16 224.65 773.16 216"/><polygon points="781.83 220.74 781.83 215.81 776.89 218.66 776.89 223.59"/><polygon points="781.83 207.16 781.83 215.81 773.16 210.8 773.16 202.16"/><polygon points="781.83 206.9 781.83 201.97 776.89 204.82 776.89 209.75"/><polygon points="781.83 193.32 781.83 201.97 773.16 196.96 773.16 188.31"/><polygon points="781.83 193.06 781.83 188.12 776.89 190.98 776.89 195.91"/><polygon points="781.83 179.48 781.83 188.12 773.16 183.12 773.16 174.47"/><polygon points="781.83 179.21 781.83 174.28 776.89 177.14 776.89 182.07"/><polygon points="781.83 165.64 781.83 174.28 773.16 169.28 773.16 160.63"/><polygon points="781.83 165.37 781.83 160.44 776.89 163.29 776.89 168.23"/><polygon points="781.83 151.79 781.83 160.44 773.16 155.44 773.16 146.79"/><polygon points="781.83 151.53 781.83 146.6 776.89 149.45 776.89 154.38"/><polygon points="781.83 137.95 781.83 146.6 773.16 141.59 773.16 132.95"/><polygon points="781.83 137.69 781.83 132.76 776.89 135.61 776.89 140.54"/><polygon points="781.83 124.11 781.83 132.76 773.16 127.75 773.16 119.1"/><polygon points="781.83 123.84 781.83 118.91 776.89 121.77 776.89 126.7"/><polygon points="781.83 110.27 781.83 118.91 773.16 113.91 773.16 105.26"/><polygon points="781.83 110 781.83 105.07 776.89 107.93 776.89 112.86"/><polygon points="781.83 96.424 781.83 105.07 773.16 100.07 773.16 91.419"/><polygon points="781.83 96.161 781.83 91.229 776.89 94.084 776.89 99.015"/><polygon points="781.83 82.582 781.83 91.229 773.16 86.225 773.16 77.577"/><polygon points="781.83 82.318 781.83 77.387 776.89 80.242 776.89 85.173"/><polygon points="781.83 68.74 781.83 77.387 773.16 72.382 773.16 63.735"/><polygon points="781.83 68.477 781.83 63.545 776.89 66.399 776.89 71.331"/><polygon points="781.83 54.898 781.83 63.545 773.16 58.541 773.16 49.893"/><polygon points="781.83 54.634 781.83 49.703 776.89 52.557 776.89 57.488"/></g><g fill="#fff"><polygon points="748.27 10.979 756.78 10.979 751.85 19.646 743.34 19.646"/><polygon points="748.01 10.979 743.15 10.979 745.96 15.921 750.82 15.921"/><polygon points="734.64 10.979 743.15 10.979 738.23 19.646 729.72 19.646"/><polygon points="734.38 10.979 729.53 10.979 732.34 15.921 737.19 15.921"/><polygon points="721.02 10.979 729.53 10.979 724.61 19.646 716.1 19.646"/><polygon points="720.76 10.979 715.91 10.979 718.72 15.921 723.57 15.921"/><polygon points="707.4 10.979 715.91 10.979 710.98 19.646 702.47 19.646"/><polygon points="707.14 10.979 702.29 10.979 705.1 15.921 709.95 15.921"/><polygon points="693.78 10.979 702.29 10.979 697.36 19.646 688.85 19.646"/><polygon points="693.52 10.979 688.66 10.979 691.47 15.921 696.33 15.921"/><polygon points="680.15 10.979 688.66 10.979 683.74 19.646 675.23 19.646"/><polygon points="679.89 10.979 675.04 10.979 677.85 15.921 682.7 15.921"/><polygon points="666.53 10.979 675.04 10.979 670.12 19.646 661.61 19.646"/><polygon points="666.27 10.979 661.42 10.979 664.23 15.921 669.08 15.921"/><polygon points="652.91 10.979 661.42 10.979 656.49 19.646 647.98 19.646"/><polygon points="652.65 10.979 647.8 10.979 650.6 15.921 655.46 15.921"/><polygon points="639.29 10.979 647.8 10.979 642.87 19.646 634.36 19.646"/><polygon points="639.03 10.979 634.17 10.979 636.98 15.921 641.84 15.921"/><polygon points="625.66 10.979 634.17 10.979 629.25 19.646 620.74 19.646"/><polygon points="625.4 10.979 620.55 10.979 623.36 15.921 628.21 15.921"/><polygon points="612.04 10.979 620.55 10.979 615.63 19.646 607.12 19.646"/><polygon points="611.78 10.979 606.93 10.979 609.74 15.921 614.59 15.921"/><polygon points="598.42 10.979 606.93 10.979 602 19.646 593.49 19.646"/><polygon points="598.16 10.979 593.31 10.979 596.12 15.921 600.97 15.921"/><polygon points="584.8 10.979 593.31 10.979 588.38 19.646 579.87 19.646"/><polygon points="584.54 10.979 579.68 10.979 582.49 15.921 587.35 15.921"/><polygon points="571.17 10.979 579.68 10.979 574.76 19.646 566.25 19.646"/><polygon points="570.91 10.979 566.06 10.979 568.87 15.921 573.72 15.921"/><polygon points="557.55 10.979 566.06 10.979 561.14 19.646 552.63 19.646"/><polygon points="557.29 10.979 552.44 10.979 555.25 15.921 560.1 15.921"/><polygon points="543.93 10.979 552.44 10.979 547.51 19.646 539 19.646"/><polygon points="543.67 10.979 538.82 10.979 541.62 15.921 546.48 15.921"/><polygon points="530.31 10.979 538.82 10.979 533.89 19.646 525.38 19.646"/><polygon points="530.05 10.979 525.19 10.979 528 15.921 532.86 15.921"/><polygon points="516.68 10.979 525.19 10.979 520.27 19.646 511.76 19.646"/><polygon points="516.42 10.979 511.57 10.979 514.38 15.921 519.23 15.921"/><polygon points="503.06 10.979 511.57 10.979 506.64 19.646 498.14 19.646"/><polygon points="502.8 10.979 497.95 10.979 500.76 15.921 505.61 15.921"/><polygon points="489.44 10.979 497.95 10.979 493.02 19.646 484.51 19.646"/><polygon points="489.18 10.979 484.33 10.979 487.14 15.921 491.99 15.921"/><polygon points="475.82 10.979 484.33 10.979 479.4 19.646 470.89 19.646"/><polygon points="475.56 10.979 470.7 10.979 473.51 15.921 478.36 15.921"/><polygon points="462.19 10.979 470.7 10.979 465.78 19.646 457.27 19.646"/><polygon points="461.93 10.979 457.08 10.979 459.89 15.921 464.74 15.921"/><polygon points="448.57 10.979 457.08 10.979 452.16 19.646 443.64 19.646"/><polygon points="448.31 10.979 443.46 10.979 446.27 15.921 451.12 15.921"/><polygon points="434.95 10.979 443.46 10.979 438.53 19.646 430.02 19.646"/><polygon points="434.69 10.979 429.84 10.979 432.64 15.921 437.5 15.921"/><polygon points="421.32 10.979 429.84 10.979 424.91 19.646 416.4 19.646"/><polygon points="421.07 10.979 416.21 10.979 419.02 15.921 423.88 15.921"/><polygon points="407.7 10.979 416.21 10.979 411.29 19.646 402.78 19.646"/><polygon points="407.44 10.979 402.59 10.979 405.4 15.921 410.25 15.921"/><polygon points="394.08 10.979 402.59 10.979 397.66 19.646 389.16 19.646"/><polygon points="393.82 10.979 388.97 10.979 391.78 15.921 396.63 15.921"/><polygon points="380.46 10.979 388.97 10.979 384.04 19.646 375.53 19.646"/><polygon points="380.2 10.979 375.35 10.979 378.15 15.921 383.01 15.921"/><polygon points="366.84 10.979 375.35 10.979 370.42 19.646 361.91 19.646"/><polygon points="366.58 10.979 361.72 10.979 364.53 15.921 369.38 15.921"/><polygon points="353.21 10.979 361.72 10.979 356.8 19.646 348.29 19.646"/><polygon points="352.95 10.979 348.1 10.979 350.91 15.921 355.76 15.921"/><polygon points="339.59 10.979 348.1 10.979 343.18 19.646 334.66 19.646"/><polygon points="339.33 10.979 334.48 10.979 337.29 15.921 342.14 15.921"/><polygon points="325.97 10.979 334.48 10.979 329.55 19.646 321.04 19.646"/><polygon points="325.71 10.979 320.86 10.979 323.66 15.921 328.52 15.921"/><polygon points="312.34 10.979 320.86 10.979 315.93 19.646 307.42 19.646"/><polygon points="312.08 10.979 307.23 10.979 310.04 15.921 314.9 15.921"/><polygon points="298.72 10.979 307.23 10.979 302.31 19.646 293.8 19.646"/><polygon points="298.46 10.979 293.61 10.979 296.42 15.921 301.27 15.921"/><polygon points="285.1 10.979 293.61 10.979 288.68 19.646 280.17 19.646"/><polygon points="284.84 10.979 279.99 10.979 282.8 15.921 287.65 15.921"/><polygon points="271.48 10.979 279.99 10.979 275.06 19.646 266.55 19.646"/><polygon points="271.22 10.979 266.36 10.979 269.17 15.921 274.03 15.921"/><polygon points="257.86 10.979 266.36 10.979 261.44 19.646 252.93 19.646"/><polygon points="257.6 10.979 252.74 10.979 255.55 15.921 260.4 15.921"/><polygon points="244.23 10.979 252.74 10.979 247.82 19.646 239.31 19.646"/><polygon points="243.97 10.979 239.12 10.979 241.93 15.921 246.78 15.921"/><polygon points="230.61 10.979 239.12 10.979 234.19 19.646 225.68 19.646"/><polygon points="230.35 10.979 225.5 10.979 228.31 15.921 233.16 15.921"/><polygon points="216.99 10.979 225.5 10.979 220.57 19.646 212.06 19.646"/><polygon points="216.73 10.979 211.87 10.979 214.68 15.921 219.54 15.921"/><polygon points="203.36 10.979 211.87 10.979 206.95 19.646 198.44 19.646"/><polygon points="203.1 10.979 198.25 10.979 201.06 15.921 205.91 15.921"/><polygon points="189.74 10.979 198.25 10.979 193.33 19.646 184.82 19.646"/><polygon points="189.48 10.979 184.63 10.979 187.44 15.921 192.29 15.921"/><polygon points="176.12 10.979 184.63 10.979 179.7 19.646 171.19 19.646"/><polygon points="175.86 10.979 171.01 10.979 173.82 15.921 178.67 15.921"/><polygon points="162.5 10.979 171.01 10.979 166.08 19.646 157.57 19.646"/><polygon points="162.24 10.979 157.38 10.979 160.19 15.921 165.05 15.921"/><polygon points="148.87 10.979 157.38 10.979 152.46 19.646 143.95 19.646"/><polygon points="148.62 10.979 143.76 10.979 146.57 15.921 151.42 15.921"/><polygon points="135.25 10.979 143.76 10.979 138.84 19.646 130.33 19.646"/><polygon points="134.99 10.979 130.14 10.979 132.95 15.921 137.8 15.921"/><polygon points="121.63 10.979 130.14 10.979 125.21 19.646 116.7 19.646"/><polygon points="121.37 10.979 116.52 10.979 119.33 15.921 124.18 15.921"/><polygon points="108.01 10.979 116.52 10.979 111.59 19.646 103.08 19.646"/><polygon points="107.75 10.979 102.89 10.979 105.7 15.921 110.56 15.921"/><polygon points="94.384 10.979 102.89 10.979 97.969 19.646 89.459 19.646"/><polygon points="94.124 10.979 89.271 10.979 92.081 15.921 96.934 15.921"/><polygon points="80.761 10.979 89.271 10.979 84.346 19.646 75.836 19.646"/><polygon points="80.502 10.979 75.649 10.979 78.458 15.921 83.311 15.921"/><polygon points="67.139 10.979 75.649 10.979 70.723 19.646 62.213 19.646"/><polygon points="66.879 10.979 62.026 10.979 64.835 15.921 69.688 15.921"/><polygon points="53.516 10.979 62.026 10.979 57.101 19.646 48.591 19.646"/><polygon points="53.257 10.979 48.404 10.979 51.213 15.921 56.066 15.921"/><polygon points="39.894 10.979 48.404 10.979 43.478 19.646 34.968 19.646"/><polygon points="39.634 10.979 34.781 10.979 37.59 15.921 42.443 15.921"/></g><g fill="#fff"><polygon points="43.292 597.22 34.781 597.22 39.707 588.56 48.217 588.56"/><polygon points="43.551 597.22 48.404 597.22 45.595 592.28 40.742 592.28"/><polygon points="56.914 597.22 48.404 597.22 53.33 588.56 61.839 588.56"/><polygon points="57.173 597.22 62.026 597.22 59.217 592.28 54.364 592.28"/><polygon points="70.537 597.22 62.026 597.22 66.952 588.56 75.462 588.56"/><polygon points="70.796 597.22 75.649 597.22 72.84 592.28 67.987 592.28"/><polygon points="84.159 597.22 75.649 597.22 80.575 588.56 89.085 588.56"/><polygon points="84.419 597.22 89.271 597.22 86.462 592.28 81.609 592.28"/><polygon points="97.782 597.22 89.271 597.22 94.197 588.56 102.71 588.56"/><polygon points="98.041 597.22 102.89 597.22 100.08 592.28 95.232 592.28"/><polygon points="111.4 597.22 102.89 597.22 107.82 588.56 116.33 588.56"/><polygon points="111.66 597.22 116.52 597.22 113.71 592.28 108.86 592.28"/><polygon points="125.03 597.22 116.52 597.22 121.44 588.56 129.95 588.56"/><polygon points="125.29 597.22 130.14 597.22 127.33 592.28 122.48 592.28"/><polygon points="138.65 597.22 130.14 597.22 135.06 588.56 143.58 588.56"/><polygon points="138.91 597.22 143.76 597.22 140.95 592.28 136.1 592.28"/><polygon points="152.27 597.22 143.76 597.22 148.69 588.56 157.2 588.56"/><polygon points="152.53 597.22 157.38 597.22 154.58 592.28 149.72 592.28"/><polygon points="165.9 597.22 157.38 597.22 162.31 588.56 170.82 588.56"/><polygon points="166.15 597.22 171.01 597.22 168.2 592.28 163.34 592.28"/><polygon points="179.52 597.22 171.01 597.22 175.93 588.56 184.44 588.56"/><polygon points="179.78 597.22 184.63 597.22 181.82 592.28 176.97 592.28"/><polygon points="193.14 597.22 184.63 597.22 189.56 588.56 198.06 588.56"/><polygon points="193.4 597.22 198.25 597.22 195.44 592.28 190.59 592.28"/><polygon points="206.76 597.22 198.25 597.22 203.18 588.56 211.69 588.56"/><polygon points="207.02 597.22 211.87 597.22 209.07 592.28 204.21 592.28"/><polygon points="220.38 597.22 211.87 597.22 216.8 588.56 225.31 588.56"/><polygon points="220.64 597.22 225.5 597.22 222.69 592.28 217.84 592.28"/><polygon points="234.01 597.22 225.5 597.22 230.42 588.56 238.93 588.56"/><polygon points="234.27 597.22 239.12 597.22 236.31 592.28 231.46 592.28"/><polygon points="247.63 597.22 239.12 597.22 244.04 588.56 252.56 588.56"/><polygon points="247.89 597.22 252.74 597.22 249.93 592.28 245.08 592.28"/><polygon points="261.25 597.22 252.74 597.22 257.67 588.56 266.18 588.56"/><polygon points="261.51 597.22 266.36 597.22 263.56 592.28 258.7 592.28"/><polygon points="274.88 597.22 266.36 597.22 271.29 588.56 279.8 588.56"/><polygon points="275.14 597.22 279.99 597.22 277.18 592.28 272.33 592.28"/><polygon points="288.5 597.22 279.99 597.22 284.91 588.56 293.42 588.56"/><polygon points="288.76 597.22 293.61 597.22 290.8 592.28 285.95 592.28"/><polygon points="302.12 597.22 293.61 597.22 298.54 588.56 307.05 588.56"/><polygon points="302.38 597.22 307.23 597.22 304.42 592.28 299.57 592.28"/><polygon points="315.74 597.22 307.23 597.22 312.16 588.56 320.67 588.56"/><polygon points="316 597.22 320.86 597.22 318.05 592.28 313.19 592.28"/><polygon points="329.36 597.22 320.86 597.22 325.78 588.56 334.29 588.56"/><polygon points="329.62 597.22 334.48 597.22 331.67 592.28 326.82 592.28"/><polygon points="342.99 597.22 334.48 597.22 339.4 588.56 347.91 588.56"/><polygon points="343.25 597.22 348.1 597.22 345.29 592.28 340.44 592.28"/><polygon points="356.61 597.22 348.1 597.22 353.03 588.56 361.54 588.56"/><polygon points="356.87 597.22 361.72 597.22 358.91 592.28 354.06 592.28"/><polygon points="370.23 597.22 361.72 597.22 366.65 588.56 375.16 588.56"/><polygon points="370.49 597.22 375.35 597.22 372.54 592.28 367.68 592.28"/><polygon points="383.86 597.22 375.35 597.22 380.27 588.56 388.78 588.56"/><polygon points="384.12 597.22 388.97 597.22 386.16 592.28 381.31 592.28"/><polygon points="397.48 597.22 388.97 597.22 393.89 588.56 402.4 588.56"/><polygon points="397.74 597.22 402.59 597.22 399.78 592.28 394.93 592.28"/><polygon points="411.1 597.22 402.59 597.22 407.52 588.56 416.03 588.56"/><polygon points="411.36 597.22 416.21 597.22 413.4 592.28 408.55 592.28"/><polygon points="424.72 597.22 416.21 597.22 421.14 588.56 429.65 588.56"/><polygon points="424.98 597.22 429.84 597.22 427.03 592.28 422.17 592.28"/><polygon points="438.35 597.22 429.84 597.22 434.76 588.56 443.27 588.56"/><polygon points="438.6 597.22 443.46 597.22 440.65 592.28 435.8 592.28"/><polygon points="451.97 597.22 443.46 597.22 448.38 588.56 456.89 588.56"/><polygon points="452.23 597.22 457.08 597.22 454.27 592.28 449.42 592.28"/><polygon points="465.59 597.22 457.08 597.22 462.01 588.56 470.52 588.56"/><polygon points="465.85 597.22 470.7 597.22 467.9 592.28 463.04 592.28"/><polygon points="479.21 597.22 470.7 597.22 475.63 588.56 484.14 588.56"/><polygon points="479.47 597.22 484.33 597.22 481.52 592.28 476.66 592.28"/><polygon points="492.84 597.22 484.33 597.22 489.25 588.56 497.76 588.56"/><polygon points="493.1 597.22 497.95 597.22 495.14 592.28 490.29 592.28"/><polygon points="506.46 597.22 497.95 597.22 502.87 588.56 511.38 588.56"/><polygon points="506.72 597.22 511.57 597.22 508.76 592.28 503.91 592.28"/><polygon points="520.08 597.22 511.57 597.22 516.5 588.56 525.01 588.56"/><polygon points="520.34 597.22 525.19 597.22 522.38 592.28 517.53 592.28"/><polygon points="533.7 597.22 525.19 597.22 530.12 588.56 538.63 588.56"/><polygon points="533.96 597.22 538.82 597.22 536.01 592.28 531.15 592.28"/><polygon points="547.33 597.22 538.82 597.22 543.74 588.56 552.25 588.56"/><polygon points="547.59 597.22 552.44 597.22 549.63 592.28 544.78 592.28"/><polygon points="560.95 597.22 552.44 597.22 557.36 588.56 565.88 588.56"/><polygon points="561.21 597.22 566.06 597.22 563.25 592.28 558.4 592.28"/><polygon points="574.57 597.22 566.06 597.22 570.99 588.56 579.5 588.56"/><polygon points="574.83 597.22 579.68 597.22 576.88 592.28 572.02 592.28"/><polygon points="588.19 597.22 579.68 597.22 584.61 588.56 593.12 588.56"/><polygon points="588.45 597.22 593.31 597.22 590.5 592.28 585.64 592.28"/><polygon points="601.82 597.22 593.31 597.22 598.23 588.56 606.74 588.56"/><polygon points="602.08 597.22 606.93 597.22 604.12 592.28 599.27 592.28"/><polygon points="615.44 597.22 606.93 597.22 611.85 588.56 620.36 588.56"/><polygon points="615.7 597.22 620.55 597.22 617.74 592.28 612.89 592.28"/><polygon points="629.06 597.22 620.55 597.22 625.48 588.56 633.99 588.56"/><polygon points="629.32 597.22 634.17 597.22 631.36 592.28 626.51 592.28"/><polygon points="642.68 597.22 634.17 597.22 639.1 588.56 647.61 588.56"/><polygon points="642.94 597.22 647.8 597.22 644.99 592.28 640.14 592.28"/><polygon points="656.31 597.22 647.8 597.22 652.72 588.56 661.23 588.56"/><polygon points="656.57 597.22 661.42 597.22 658.61 592.28 653.76 592.28"/><polygon points="669.93 597.22 661.42 597.22 666.34 588.56 674.86 588.56"/><polygon points="670.19 597.22 675.04 597.22 672.23 592.28 667.38 592.28"/><polygon points="683.55 597.22 675.04 597.22 679.97 588.56 688.48 588.56"/><polygon points="683.81 597.22 688.66 597.22 685.86 592.28 681 592.28"/><polygon points="697.18 597.22 688.66 597.22 693.59 588.56 702.1 588.56"/><polygon points="697.43 597.22 702.29 597.22 699.48 592.28 694.62 592.28"/><polygon points="710.8 597.22 702.29 597.22 707.21 588.56 715.72 588.56"/><polygon points="711.06 597.22 715.91 597.22 713.1 592.28 708.25 592.28"/><polygon points="724.42 597.22 715.91 597.22 720.84 588.56 729.35 588.56"/><polygon points="724.68 597.22 729.53 597.22 726.72 592.28 721.87 592.28"/><polygon points="738.04 597.22 729.53 597.22 734.46 588.56 742.97 588.56"/><polygon points="738.3 597.22 743.15 597.22 740.35 592.28 735.49 592.28"/><polygon points="751.66 597.22 743.15 597.22 748.08 588.56 756.59 588.56"/><polygon points="751.92 597.22 756.78 597.22 753.97 592.28 749.12 592.28"/></g><text x="167.68169" y="107.3148" fill="#414042" font-family="Arial-BoldMT" font-size="36px" style="line-height:0%">Certificate of Achievement</text>
<g fill="#fff"><rect x="753.76" y="531.32" width="4.667" height="40.933"/><rect x="717.49" y="567.58" width="40.933" height="4.667"/><rect x="33.893" y="565.24" width="40.933" height="4.667"/><rect x="33.893" y="528.98" width="4.667" height="40.933"/><rect x="33.893" y="473.64" width="4.667" height="40.933"/><rect x="33.893" y="418.31" width="4.667" height="40.933"/><rect x="33.893" y="362.98" width="4.667" height="40.933"/><rect x="33.893" y="307.64" width="4.667" height="40.935"/><rect x="33.893" y="252.31" width="4.667" height="40.933"/><rect x="33.893" y="196.98" width="4.667" height="40.933"/><rect x="33.893" y="141.64" width="4.667" height="40.933"/><rect x="33.893" y="86.311" width="4.667" height="40.933"/><rect x="753.56" y="473.64" width="4.667" height="40.933"/><rect x="753.56" y="418.31" width="4.667" height="40.933"/><rect x="753.56" y="362.98" width="4.667" height="40.933"/><rect x="753.56" y="307.64" width="4.667" height="40.935"/><rect x="753.56" y="252.31" width="4.667" height="40.933"/><rect x="753.56" y="196.98" width="4.667" height="40.933"/><rect x="753.56" y="141.64" width="4.667" height="40.933"/><rect x="753.56" y="86.311" width="4.667" height="40.933"/><rect x="717.5" y="36.743" width="40.933" height="4.667"/><rect x="753.76" y="36.743" width="4.667" height="40.933"/><rect x="33.893" y="36.745" width="4.667" height="40.933"/><rect x="33.893" y="36.745" width="40.933" height="4.667"/><rect x="90.559" y="36.745" width="40.933" height="4.667"/><rect x="147.23" y="36.745" width="40.933" height="4.667"/><rect x="203.89" y="36.745" width="40.933" height="4.667"/><rect x="260.56" y="36.745" width="40.933" height="4.667"/><rect x="317.22" y="36.745" width="40.933" height="4.667"/><rect x="373.89" y="36.745" width="40.933" height="4.667"/><rect x="430.56" y="36.745" width="40.934" height="4.667"/><rect x="487.22" y="36.745" width="40.934" height="4.667"/><rect x="543.89" y="36.745" width="40.934" height="4.667"/><rect x="600.56" y="36.745" width="40.934" height="4.667"/><rect x="657.22" y="36.745" width="40.934" height="4.667"/><rect x="90.559" y="565.24" width="40.933" height="4.667"/><rect x="147.23" y="565.24" width="40.933" height="4.667"/><rect x="203.89" y="565.24" width="40.933" height="4.667"/><rect x="260.56" y="565.24" width="40.933" height="4.667"/><rect x="317.22" y="565.24" width="40.933" height="4.667"/><rect x="373.89" y="565.24" width="40.933" height="4.667"/><rect x="430.56" y="565.24" width="40.934" height="4.667"/><rect x="487.22" y="565.24" width="40.934" height="4.667"/><rect x="543.89" y="565.24" width="40.934" height="4.667"/><rect x="600.56" y="565.24" width="40.934" height="4.667"/><rect x="657.22" y="565.24" width="40.934" height="4.667"/></g><g transform="matrix(1.2546 0 0 1.2546 399.56 -221.98)"><path d="m104.54 517.64c-0.488-0.524-2.917-0.463-3.587-0.476-3.685-0.024-10.568 0.183-14.009 0.183-0.134 0-0.61 0.232-0.537 0.428-2.441 0-3.734 0.012-6.687-0.025-1.599-0.012-5.406 0.184-5.503-2.635-0.049-1.416 1.245-2.66 2.77-4.174-0.976-0.293-1.953 0.354-2.941 0.903-0.476 0.476-0.805 0.793-1.208 1.196-1.489 2.172-2.074 4.368-1.721 6.565 1.342-0.256 2.343 1.586 1.403 2.453l-0.842 0.012c-0.403 0-0.72 0.415-0.708 0.903l0.024 1.952c0.012 0.5 0.342 0.83 0.732 0.83h4.247c0.39-0.013 0.708-0.415 0.695-0.916l-0.024-1.951c0-0.488-0.33-0.892-0.732-0.879h-0.524c-0.939-2.624 2.074-2.282 3.783-2.258 3.197 0.025 4.271 0.012 7.09 0.012 0.158 0.195 0.085 0.562 0.525 0.744 0.28 0.11 17.23 0.074 17.535 0 0.305-0.072 0.22-0.219 0.329-0.328 0.146-0.586 0.475-1.893-0.11-2.539zm-28.591 4.734v2.075s-0.061-1.354-0.61-1.44c-0.562-0.085-0.244-0.635-0.244-0.635h0.854zm28.407-3.806s-0.5-0.171-0.902-0.428c-0.866-0.561-16.242-0.061-16.242-0.061l0.439-0.366s15.668-0.269 16.205 0c0.538 0.269 0.5 0.855 0.5 0.855z" fill="#2b3c90"/><rect x="70.958" y="510.85" width="33.935" height="14.911" fill="none"/><path d="m67.835 537.14c0.305-0.439 0.451-0.964 0.451-1.574 0-0.403-0.11-0.769-0.33-1.074-0.232-0.317-0.561-0.598-1-0.829-0.439-0.232-1.013-0.439-1.709-0.61-0.61-0.147-1.061-0.269-1.403-0.366-0.342-0.098-0.61-0.232-0.818-0.391-0.219-0.158-0.317-0.366-0.317-0.622 0-0.28 0.134-0.525 0.427-0.708 0.281-0.171 0.635-0.268 1.05-0.268s0.732 0.073 0.976 0.208 0.451 0.317 0.622 0.549c0.208 0.257 0.391 0.464 0.549 0.586 0.159 0.122 0.342 0.183 0.561 0.183 0.305 0 0.537-0.073 0.708-0.232 0.158-0.159 0.244-0.354 0.244-0.598 0-0.221-0.086-0.464-0.232-0.696-0.159-0.244-0.403-0.463-0.708-0.671-0.305-0.195-0.695-0.354-1.147-0.476-0.463-0.122-0.988-0.184-1.574-0.184-0.732 0-1.367 0.122-1.892 0.354-0.513 0.231-0.916 0.562-1.171 0.951-0.269 0.391-0.403 0.818-0.403 1.257 0 0.489 0.146 0.915 0.427 1.245 0.293 0.342 0.671 0.622 1.16 0.83 0.488 0.207 1.123 0.415 1.891 0.609 0.696 0.171 1.208 0.342 1.513 0.525 0.317 0.195 0.476 0.5 0.476 0.927 0 0.281-0.159 0.524-0.464 0.732-0.293 0.208-0.683 0.317-1.147 0.317-0.561 0-1.025-0.109-1.354-0.305-0.33-0.208-0.61-0.513-0.854-0.928-0.11-0.207-0.232-0.366-0.354-0.476-0.11-0.11-0.281-0.159-0.513-0.159-0.256 0-0.463 0.086-0.634 0.244-0.159 0.171-0.244 0.366-0.244 0.598 0 0.366 0.134 0.732 0.403 1.099 0.268 0.366 0.695 0.671 1.269 0.915 0.573 0.244 1.269 0.366 2.062 0.366 0.842 0 1.574-0.109 2.16-0.342 0.574-0.218 1.026-0.547 1.319-0.986z" fill="#2b3c90"/><rect x="60.623" y="529.36" width="7.675" height="9.116" fill="none"/><path d="m83.942 526c-0.744 0-1.33 0.098-1.745 0.28-0.415 0.183-0.72 0.488-0.891 0.891s-0.268 0.964-0.268 1.66v0.744h-0.586c-0.732 0-1.086 0.243-1.086 0.757 0 0.231 0.085 0.402 0.256 0.549 0.17 0.146 0.415 0.22 0.745 0.22h0.671v6.053c0 0.438 0.109 0.768 0.305 0.988 0.207 0.231 0.463 0.342 0.768 0.342 0.318 0 0.587-0.122 0.781-0.342 0.208-0.221 0.305-0.55 0.305-0.988v-6.053h0.61c0.403 0 0.708-0.049 0.928-0.146 0.22-0.098 0.317-0.306 0.317-0.659 0-0.488-0.403-0.72-1.245-0.72h-0.61v-0.598c0-0.452 0.061-0.818 0.183-1.062 0.122-0.256 0.403-0.39 0.842-0.39 0.146 0 0.329 0.012 0.549 0.049 0.219 0.036 0.366 0.049 0.451 0.049 0.171 0 0.317-0.061 0.452-0.208 0.122-0.134 0.195-0.306 0.195-0.5 1e-3 -0.611-0.658-0.916-1.927-0.916z" fill="#2b3c90"/><rect x="79.366" y="526" width="6.516" height="12.495" fill="none"/><path d="m91.812 537.39c0-0.195-0.061-0.365-0.195-0.5-0.134-0.146-0.293-0.208-0.463-0.208-0.122 0-0.293 0.025-0.513 0.074-0.232 0.049-0.414 0.072-0.549 0.072-0.269 0-0.452-0.072-0.573-0.207-0.11-0.122-0.184-0.293-0.208-0.488s-0.049-0.475-0.049-0.83v-4.222h0.488c0.439 0 0.781-0.061 1-0.183 0.231-0.11 0.342-0.306 0.342-0.586 0-0.22-0.086-0.402-0.244-0.537-0.159-0.147-0.391-0.22-0.696-0.22h-0.891v-1.599c0-0.378-0.012-0.671-0.061-0.879-0.036-0.194-0.122-0.354-0.269-0.5-0.219-0.195-0.476-0.305-0.744-0.305-0.195 0-0.378 0.049-0.537 0.134-0.146 0.098-0.268 0.22-0.354 0.366-0.085 0.135-0.133 0.305-0.158 0.513-0.012 0.208-0.024 0.488-0.024 0.854v1.415h-0.304c-0.33 0-0.586 0.073-0.757 0.22-0.159 0.135-0.244 0.317-0.244 0.537s0.073 0.402 0.244 0.549c0.158 0.146 0.39 0.22 0.708 0.22h0.354v4.405c0 0.695 0.049 1.257 0.171 1.672 0.11 0.402 0.341 0.732 0.695 0.952 0.354 0.231 0.879 0.354 1.574 0.354 0.732 0 1.306-0.098 1.696-0.28 0.378-0.196 0.561-0.452 0.561-0.793z" fill="#2b3c90"/><rect x="85.81" y="526.28" width="6.027" height="12.203" fill="none"/><path d="m102.93 536.72 1.854-5.43c0.171-0.464 0.256-0.806 0.256-1.037 0-0.232-0.097-0.452-0.28-0.623-0.184-0.183-0.415-0.268-0.671-0.268-0.257 0-0.452 0.062-0.586 0.171-0.135 0.123-0.232 0.256-0.293 0.415-0.062 0.158-0.135 0.428-0.232 0.781l-1.549 5.259-1.403-4.893c-0.135-0.477-0.245-0.806-0.317-0.989-0.074-0.183-0.207-0.354-0.391-0.512-0.184-0.159-0.439-0.232-0.757-0.232-0.317 0-0.573 0.073-0.744 0.232-0.183 0.158-0.317 0.317-0.378 0.487-0.073 0.184-0.17 0.525-0.317 1.014l-1.403 4.893-1.525-5.259c-0.146-0.5-0.293-0.866-0.427-1.073-0.11-0.196-0.354-0.294-0.708-0.294-0.269 0-0.5 0.098-0.683 0.281s-0.269 0.378-0.269 0.61c0 0.183 0.085 0.536 0.269 1.037l1.843 5.43c0.049 0.147 0.109 0.342 0.207 0.586 0.086 0.244 0.184 0.451 0.293 0.622 0.11 0.184 0.256 0.305 0.415 0.403 0.171 0.085 0.379 0.134 0.61 0.134 0.464 0 0.794-0.146 0.977-0.44 0.195-0.305 0.366-0.768 0.537-1.379l1.306-4.6 1.354 4.6c0.11 0.403 0.208 0.72 0.305 0.964 0.085 0.244 0.232 0.452 0.415 0.61 0.183 0.171 0.451 0.244 0.769 0.244 0.317 0 0.574-0.073 0.756-0.22 0.183-0.158 0.317-0.33 0.403-0.537 0.082-0.194 0.205-0.524 0.364-0.987z" fill="#2b3c90"/><rect x="92.105" y="529.36" width="12.946" height="9.116" fill="none"/><path d="m114.27 536.73c-0.146-0.464-0.22-0.928-0.22-1.354 0.012-0.452 0.012-0.867 0.012-1.232 0.013-0.366 0.013-0.83 0.013-1.356 0-0.829-0.122-1.5-0.354-2.001-0.232-0.5-0.623-0.866-1.172-1.098-0.562-0.22-1.354-0.342-2.331-0.342-0.878 0-1.635 0.122-2.221 0.366-0.586 0.231-1.013 0.537-1.294 0.902-0.269 0.366-0.414 0.745-0.414 1.135 0 0.232 0.085 0.428 0.269 0.586 0.17 0.146 0.378 0.232 0.622 0.232 0.256 0 0.427-0.049 0.5-0.134 0.085-0.109 0.232-0.317 0.439-0.635 0.207-0.329 0.476-0.573 0.769-0.744 0.293-0.158 0.745-0.244 1.33-0.244 0.684 0 1.147 0.146 1.367 0.439 0.219 0.293 0.341 0.744 0.365 1.354l0.013 0.037-0.049 0.012c-0.464 0.134-0.902 0.257-1.33 0.354-0.402 0.098-0.891 0.207-1.465 0.329-0.598 0.122-0.927 0.183-1.073 0.22-0.671 0.146-1.195 0.439-1.587 0.866-0.378 0.427-0.573 0.94-0.573 1.55 0 0.44 0.122 0.866 0.354 1.244 0.231 0.391 0.562 0.695 0.988 0.916 0.427 0.22 0.94 0.342 1.513 0.342 0.622 0 1.196-0.11 1.696-0.317 0.513-0.221 1.037-0.537 1.574-0.952l0.049-0.037 0.036 0.049c0.257 0.415 0.488 0.72 0.721 0.94 0.207 0.207 0.427 0.317 0.646 0.317 0.257 0 0.5-0.098 0.708-0.281 0.207-0.184 0.305-0.366 0.305-0.586 1e-3 -0.132-0.073-0.426-0.206-0.877zm-2.32-2.44c0 0.793-0.098 1.379-0.305 1.72-0.183 0.317-0.476 0.586-0.866 0.781-0.379 0.208-0.806 0.306-1.257 0.306-0.44 0-0.793-0.122-1.062-0.379-0.269-0.256-0.415-0.561-0.415-0.915 0-0.353 0.122-0.623 0.354-0.817 0.232-0.195 0.477-0.317 0.72-0.391 0.244-0.061 0.684-0.158 1.318-0.293 0.635-0.135 1.123-0.269 1.439-0.391l0.086-0.024v0.403h-0.012z" fill="#2b3c90"/><rect x="105.88" y="529.34" width="8.603" height="9.152" fill="none"/><path d="m121.31 529.72c-0.438-0.232-0.902-0.354-1.366-0.354s-0.829 0.122-1.098 0.343c-0.281 0.231-0.562 0.585-0.83 1.036l-0.098 0.171-0.013-0.195c-0.013-0.451-0.097-0.793-0.256-1.024-0.159-0.22-0.415-0.33-0.769-0.33-0.708 0-1.05 0.476-1.05 1.477v6.31c0 0.438 0.098 0.768 0.306 0.988 0.195 0.22 0.451 0.329 0.756 0.329 0.317 0 0.586-0.109 0.781-0.329 0.207-0.208 0.317-0.55 0.317-0.988v-1.893c0-0.683 0.012-1.268 0.061-1.732 0.049-0.476 0.122-0.891 0.244-1.244 0.122-0.354 0.293-0.622 0.513-0.806 0.378-0.306 0.928-0.366 1.709-0.109 0.39 0.122 0.524 0.147 0.585 0.147 0.207 0 0.402-0.086 0.573-0.257 0.184-0.171 0.269-0.378 0.269-0.646 0-0.37-0.207-0.663-0.634-0.894z" fill="#2b3c90"/><rect x="115.83" y="529.36" width="6.125" height="9.116" fill="none"/><path d="m130.2 536.83c0.159-0.256 0.232-0.487 0.232-0.683 0-0.22-0.061-0.378-0.195-0.5-0.135-0.11-0.305-0.171-0.524-0.171-0.208 0-0.355 0.036-0.464 0.134-0.28 0.269-0.513 0.476-0.684 0.622-0.183 0.159-0.378 0.305-0.586 0.451-0.219 0.135-0.438 0.232-0.671 0.306-0.231 0.062-0.488 0.098-0.756 0.098-0.415 0-0.806-0.109-1.147-0.317-0.342-0.195-0.61-0.5-0.817-0.903-0.208-0.402-0.317-0.866-0.317-1.391v-0.049h4.49c0.574 0 1.037-0.085 1.354-0.257 0.305-0.158 0.452-0.512 0.452-1.049 0-0.61-0.159-1.208-0.465-1.794-0.305-0.573-0.78-1.062-1.403-1.428-0.622-0.366-1.378-0.549-2.244-0.549-0.672 0-1.294 0.109-1.843 0.329-0.55 0.208-1.025 0.525-1.391 0.928-0.379 0.402-0.672 0.891-0.867 1.452-0.195 0.562-0.293 1.184-0.293 1.842 0 1.403 0.403 2.526 1.195 3.344 0.794 0.818 1.929 1.233 3.356 1.233 0.635 0 1.196-0.086 1.672-0.257 0.487-0.158 0.891-0.366 1.208-0.61 0.318-0.244 0.562-0.511 0.708-0.781zm-5.93-3.648c0.073-0.768 0.305-1.366 0.671-1.757 0.366-0.402 0.854-0.61 1.428-0.61 0.61 0 1.11 0.208 1.477 0.598 0.366 0.391 0.586 0.989 0.646 1.77v0.061h-4.234l0.012-0.062z" fill="#2b3c90"/><rect x="122.06" y="529.34" width="8.518" height="9.152" fill="none"/><path d="m144.61 536.6c0.158-0.305 0.244-0.61 0.244-0.878 0-0.221-0.086-0.44-0.257-0.635s-0.39-0.293-0.646-0.293c-0.22 0-0.403 0.061-0.549 0.195-0.159 0.146-0.306 0.342-0.441 0.585-0.256 0.439-0.549 0.77-0.878 0.988-0.329 0.208-0.732 0.317-1.196 0.317-0.354 0-0.671-0.061-0.951-0.195-0.293-0.134-0.549-0.329-0.744-0.598-0.208-0.244-0.367-0.562-0.476-0.928-0.099-0.353-0.159-0.756-0.159-1.183 0-0.928 0.22-1.66 0.635-2.185 0.414-0.537 0.976-0.806 1.659-0.806 0.476 0 0.866 0.11 1.184 0.317 0.305 0.22 0.598 0.537 0.878 0.964 0.147 0.207 0.294 0.366 0.416 0.452 0.109 0.097 0.256 0.134 0.427 0.134 0.269 0 0.512-0.085 0.695-0.256 0.195-0.183 0.293-0.391 0.293-0.659 0-0.244-0.098-0.525-0.269-0.83-0.171-0.293-0.427-0.586-0.768-0.854-0.329-0.257-0.745-0.477-1.221-0.647-0.487-0.171-1.025-0.256-1.599-0.256-0.939 0-1.744 0.195-2.416 0.573-0.671 0.391-1.183 0.94-1.537 1.636-0.354 0.707-0.537 1.525-0.537 2.44 0 1.355 0.391 2.44 1.159 3.245 0.781 0.806 1.867 1.209 3.246 1.209 0.647 0 1.245-0.086 1.757-0.257 0.513-0.184 0.952-0.415 1.294-0.695 0.342-0.278 0.598-0.583 0.757-0.9z" fill="#2b3c90"/><rect x="136.4" y="529.35" width="8.469" height="9.115" fill="none"/><path d="m154.58 536.73c-0.146-0.464-0.219-0.928-0.219-1.354 0.012-0.452 0.012-0.867 0.012-1.232 0.012-0.366 0.012-0.83 0.012-1.356 0-0.829-0.121-1.5-0.354-2.001-0.232-0.5-0.622-0.866-1.171-1.098-0.561-0.22-1.343-0.342-2.331-0.342-0.879 0-1.623 0.122-2.221 0.366-0.586 0.231-1.014 0.537-1.294 0.902-0.269 0.366-0.415 0.745-0.415 1.135 0 0.232 0.086 0.428 0.27 0.586 0.17 0.158 0.378 0.232 0.622 0.232 0.256 0 0.427-0.049 0.5-0.134 0.085-0.109 0.232-0.317 0.438-0.635 0.22-0.329 0.477-0.573 0.77-0.744 0.293-0.158 0.744-0.244 1.33-0.244 0.684 0 1.146 0.146 1.366 0.439s0.342 0.744 0.379 1.354v0.037l-0.049 0.012c-0.464 0.146-0.915 0.257-1.33 0.354-0.403 0.098-0.892 0.207-1.465 0.329-0.598 0.122-0.927 0.183-1.062 0.22-0.684 0.146-1.208 0.439-1.599 0.866-0.378 0.427-0.573 0.94-0.573 1.55 0 0.44 0.122 0.866 0.354 1.244 0.232 0.379 0.562 0.695 0.989 0.916 0.427 0.22 0.939 0.342 1.513 0.342 0.622 0 1.196-0.11 1.696-0.317 0.513-0.221 1.037-0.537 1.574-0.952l0.048-0.037 0.037 0.049c0.257 0.415 0.488 0.72 0.72 0.94 0.208 0.207 0.428 0.317 0.646 0.317 0.257 0 0.501-0.098 0.708-0.281 0.208-0.184 0.306-0.366 0.306-0.586 1e-3 -0.132-0.072-0.426-0.207-0.877zm-2.306-2.44c0 0.793-0.11 1.379-0.317 1.72-0.184 0.317-0.476 0.586-0.867 0.781-0.378 0.208-0.805 0.306-1.256 0.306-0.439 0-0.794-0.122-1.061-0.379-0.269-0.244-0.416-0.561-0.416-0.915 0-0.353 0.123-0.623 0.354-0.817 0.232-0.195 0.476-0.317 0.72-0.391 0.244-0.061 0.684-0.158 1.318-0.293s1.122-0.269 1.439-0.391l0.086-0.024v0.403z" fill="#2b3c90"/><rect x="146.2" y="529.34" width="8.603" height="9.152" fill="none"/><path d="m161.64 529.72c-0.44-0.232-0.903-0.354-1.367-0.354s-0.829 0.122-1.11 0.343c-0.269 0.231-0.549 0.585-0.817 1.036l-0.098 0.171v-0.195c-0.024-0.451-0.11-0.793-0.269-1.024-0.159-0.22-0.415-0.33-0.768-0.33-0.708 0-1.05 0.476-1.05 1.477v6.31c0 0.438 0.098 0.768 0.305 0.988 0.196 0.22 0.452 0.329 0.757 0.329 0.317 0 0.586-0.109 0.781-0.329 0.207-0.208 0.317-0.55 0.317-0.988v-1.893c0-0.683 0.024-1.268 0.062-1.732 0.048-0.476 0.121-0.891 0.243-1.244 0.122-0.354 0.293-0.622 0.513-0.806 0.378-0.306 0.928-0.366 1.708-0.109 0.391 0.122 0.525 0.147 0.586 0.147 0.195 0 0.402-0.086 0.573-0.257 0.184-0.171 0.268-0.378 0.268-0.646 0-0.37-0.208-0.663-0.634-0.894z" fill="#2b3c90"/><rect x="156.14" y="529.36" width="6.138" height="9.116" fill="none"/><path d="m170.9 537.26c0.329-0.391 0.598-0.879 0.793-1.452 0.195-0.574 0.292-1.221 0.292-1.904 0-0.938-0.17-1.757-0.5-2.44-0.341-0.671-0.806-1.195-1.379-1.549s-1.208-0.537-1.891-0.537c-0.574 0-1.086 0.122-1.538 0.365-0.451 0.245-0.891 0.636-1.306 1.147l-0.11 0.122v-0.427c0-0.402-0.097-0.708-0.28-0.915-0.195-0.195-0.439-0.306-0.744-0.306-0.317 0-0.561 0.098-0.732 0.306-0.183 0.195-0.269 0.513-0.269 0.927v9.787c0 0.476 0.061 0.842 0.195 1.098 0.135 0.232 0.392 0.354 0.806 0.354 0.695 0 1.024-0.477 1.024-1.441v-3.563l0.11 0.123c0.391 0.5 0.806 0.878 1.232 1.135 0.439 0.256 0.977 0.378 1.611 0.378 0.524 0 1.025-0.098 1.477-0.317 0.464-0.209 0.868-0.501 1.209-0.891zm-1.378-1.77c-0.196 0.439-0.464 0.781-0.781 1.001-0.329 0.232-0.695 0.341-1.086 0.341-0.646 0-1.195-0.256-1.623-0.769-0.439-0.513-0.659-1.232-0.659-2.148 0-0.964 0.22-1.708 0.659-2.208 0.439-0.501 0.988-0.757 1.623-0.757 0.402 0 0.781 0.109 1.11 0.354 0.329 0.232 0.598 0.573 0.781 1.013 0.183 0.428 0.28 0.952 0.28 1.562 0 0.623-0.109 1.16-0.304 1.611z" fill="#2b3c90"/><rect x="163.22" y="529.35" width="8.773" height="12.495" fill="none"/><path d="m181.15 536.83c0.158-0.256 0.231-0.487 0.231-0.683 0-0.22-0.061-0.378-0.195-0.5-0.134-0.123-0.305-0.171-0.524-0.171-0.208 0-0.354 0.036-0.464 0.134-0.28 0.269-0.513 0.476-0.684 0.622-0.183 0.159-0.378 0.305-0.586 0.451-0.219 0.135-0.439 0.232-0.671 0.306-0.232 0.062-0.488 0.098-0.757 0.098-0.414 0-0.805-0.109-1.146-0.317-0.342-0.195-0.61-0.5-0.817-0.903-0.207-0.402-0.317-0.866-0.317-1.391v-0.049h4.49c0.573 0 1.037-0.085 1.354-0.257 0.306-0.158 0.451-0.512 0.451-1.049 0-0.61-0.158-1.208-0.463-1.794-0.306-0.573-0.781-1.062-1.403-1.428s-1.379-0.549-2.246-0.549c-0.683 0-1.293 0.109-1.842 0.329-0.549 0.208-1.013 0.525-1.392 0.928-0.378 0.402-0.671 0.891-0.866 1.452-0.195 0.562-0.293 1.184-0.293 1.842 0 1.403 0.402 2.526 1.196 3.344 0.793 0.818 1.928 1.233 3.355 1.233 0.635 0 1.196-0.086 1.672-0.257 0.488-0.158 0.891-0.366 1.208-0.61 0.319-0.244 0.55-0.511 0.709-0.781zm-5.93-3.648c0.073-0.768 0.305-1.366 0.671-1.757 0.366-0.402 0.855-0.61 1.428-0.61 0.61 0 1.11 0.208 1.477 0.598 0.366 0.391 0.586 0.989 0.646 1.77v0.061h-4.233l0.011-0.062z" fill="#2b3c90"/><rect x="173.01" y="529.34" width="8.529" height="9.152" fill="none"/><path d="m190.88 532.93c0-0.488-0.024-0.903-0.061-1.22-0.049-0.317-0.146-0.61-0.293-0.879-0.221-0.464-0.574-0.83-1.025-1.087-0.464-0.243-0.988-0.378-1.574-0.378-0.61 0-1.146 0.122-1.61 0.366s-0.903 0.623-1.294 1.135l-0.098 0.135v-0.439c0-0.256-0.049-0.477-0.134-0.659-0.098-0.183-0.22-0.317-0.366-0.402-0.159-0.086-0.329-0.135-0.513-0.135-0.305 0-0.561 0.098-0.732 0.306-0.183 0.195-0.269 0.513-0.269 0.927v6.554c0 0.427 0.098 0.756 0.306 0.988 0.195 0.22 0.451 0.329 0.757 0.329 0.329 0 0.585-0.109 0.793-0.329 0.195-0.208 0.305-0.55 0.305-0.988v-2.844c0-0.94 0.049-1.562 0.159-1.903 0.158-0.439 0.414-0.781 0.756-1.025s0.721-0.366 1.135-0.366c0.647 0 1.074 0.208 1.294 0.623 0.207 0.402 0.317 0.988 0.317 1.732v3.783c0 0.427 0.098 0.756 0.305 0.988 0.195 0.22 0.464 0.329 0.781 0.329s0.562-0.109 0.769-0.329c0.195-0.221 0.293-0.55 0.293-0.988v-4.224z" fill="#2b3c90"/><rect x="182.92" y="529.36" width="7.993" height="9.116" fill="none"/><path d="m197.99 537.39c0-0.207-0.061-0.365-0.195-0.5-0.134-0.146-0.292-0.208-0.451-0.208-0.135 0-0.305 0.025-0.524 0.074-0.232 0.049-0.415 0.072-0.549 0.072-0.269 0-0.452-0.072-0.574-0.207-0.109-0.122-0.183-0.293-0.207-0.488-0.025-0.195-0.049-0.475-0.049-0.83v-4.222h0.488c0.439 0 0.78-0.061 1.013-0.183 0.219-0.11 0.329-0.306 0.329-0.586 0-0.22-0.086-0.402-0.244-0.537-0.158-0.147-0.391-0.22-0.695-0.22h-0.891v-1.599c0-0.378-0.013-0.671-0.061-0.879-0.036-0.194-0.122-0.354-0.269-0.5-0.219-0.195-0.476-0.305-0.744-0.305-0.195 0-0.378 0.049-0.524 0.134-0.159 0.098-0.28 0.22-0.366 0.366-0.085 0.135-0.135 0.305-0.159 0.513-0.012 0.208-0.023 0.488-0.023 0.854v1.415h-0.306c-0.329 0-0.586 0.073-0.756 0.22-0.159 0.135-0.244 0.317-0.244 0.537s0.073 0.402 0.244 0.549c0.158 0.146 0.39 0.22 0.708 0.22h0.354v4.405c0 0.695 0.048 1.257 0.171 1.672 0.109 0.402 0.341 0.732 0.695 0.952 0.354 0.231 0.878 0.354 1.573 0.354 0.732 0 1.307-0.098 1.696-0.28 0.378-0.196 0.56-0.452 0.56-0.793z" fill="#2b3c90"/><rect x="191.98" y="526.28" width="6.016" height="12.203" fill="none"/><path d="m204.5 529.72c-0.439-0.232-0.903-0.354-1.367-0.354s-0.829 0.122-1.11 0.343c-0.268 0.231-0.549 0.585-0.817 1.036l-0.098 0.171-0.013-0.195c-0.012-0.451-0.097-0.793-0.256-1.024-0.158-0.22-0.415-0.33-0.769-0.33-0.708 0-1.05 0.476-1.05 1.477v6.31c0 0.438 0.098 0.768 0.306 0.988 0.195 0.22 0.451 0.329 0.757 0.329 0.316 0 0.585-0.109 0.78-0.329 0.208-0.208 0.317-0.55 0.317-0.988v-1.893c0-0.683 0.012-1.268 0.061-1.732 0.049-0.476 0.123-0.891 0.244-1.244 0.123-0.354 0.293-0.622 0.513-0.806 0.379-0.306 0.928-0.366 1.709-0.109 0.391 0.122 0.524 0.147 0.586 0.147 0.194 0 0.402-0.086 0.573-0.257 0.183-0.171 0.268-0.378 0.268-0.646 0-0.37-0.207-0.663-0.634-0.894z" fill="#2b3c90"/><rect x="199.01" y="529.36" width="6.138" height="9.116" fill="none"/><path d="m209.77 540.65c0.244-0.378 0.488-0.914 0.744-1.586l2.953-7.736c0.073-0.208 0.134-0.402 0.183-0.586 0.049-0.195 0.086-0.341 0.11-0.451 0-0.147-0.037-0.305-0.122-0.452-0.086-0.146-0.195-0.256-0.342-0.341-0.146-0.086-0.305-0.135-0.476-0.135-0.22 0-0.403 0.037-0.513 0.122-0.122 0.073-0.244 0.221-0.355 0.452-0.109 0.231-0.243 0.573-0.39 0.988l-1.867 5.345-1.977-5.735c-0.122-0.391-0.268-0.684-0.428-0.878-0.158-0.196-0.378-0.294-0.695-0.294-0.183 0-0.354 0.049-0.513 0.147-0.171 0.086-0.305 0.22-0.39 0.379-0.099 0.158-0.147 0.329-0.147 0.513 0 0.17 0.086 0.463 0.257 0.853l2.794 7.053-0.207 0.525c-0.159 0.365-0.306 0.659-0.428 0.854-0.122 0.194-0.256 0.341-0.414 0.414-0.159 0.086-0.378 0.122-0.647 0.122-0.109 0-0.232-0.012-0.378-0.049-0.122-0.036-0.231-0.049-0.354-0.049-0.293 0-0.513 0.073-0.659 0.195-0.146 0.135-0.22 0.317-0.22 0.562 0 0.366 0.146 0.61 0.464 0.744 0.329 0.135 0.817 0.208 1.477 0.208 0.671 0 1.208-0.098 1.599-0.306 0.392-0.206 0.71-0.499 0.941-0.878z" fill="#2b3c90"/><rect x="205.28" y="529.35" width="8.493" height="12.495" fill="none"/><path d="m72.496 527.18s-0.11 0.342 0 0.451c0.098 0.109 0.623 0.146 0.623 0.146v6.517l1.037 0.744 0.878-0.83v-6.37l0.268-0.061c0.415 0.109 0.513-0.256 0.513-0.256v-0.342h-3.319zm2.172 6.955-0.293 0.122v-6.382l0.293-0.098v6.358zm0.781-6.638c-0.305 0.024-2.282-0.208-2.282-0.208h2.282s0.318 0.195 0 0.208z" fill="#2b3c90"/><rect x="72.447" y="527.18" width="3.38" height="7.87" fill="none"/><path d="m77.365 530.01-0.024-0.013c-0.171-0.171-0.403-0.268-0.647-0.268-0.525 0-0.939 0.428-0.939 0.939 0 0.244 0.085 0.476 0.268 0.659l0.013 0.013c0.024 0.036 0.061 0.061 0.097 0.085 0.647 0.573 1.025 1.403 1.025 2.258 0 1.672-1.354 3.014-3.026 3.014-1.66 0-3.014-1.342-3.014-3.014 0-0.843 0.354-1.66 0.988-2.222 0.269-0.183 0.415-0.476 0.415-0.793 0-0.512-0.415-0.939-0.939-0.939-0.244 0-0.476 0.098-0.659 0.268l-0.012 0.025-0.012-0.012c-1.062 0.927-1.659 2.27-1.659 3.673 0 2.696 2.196 4.893 4.893 4.893s4.893-2.196 4.893-4.893c-2e-3 -1.404-0.6-2.746-1.661-3.673z" fill="#2b3c90"/><rect x="69.238" y="529.73" width="9.799" height="8.859" fill="none"/></g></svg>
